<svg width="23" height="23" viewBox="0 0 23 23" fill="none" xmlns="http://www.w3.org/2000/svg">
<path d="M4.22122 14.8791L8.56248 19.2204C9.42116 20.0765 10.5843 20.5573 11.7969 20.5573C13.0094 20.5573 14.1725 20.0765 15.0312 19.2204L19.2383 15.0133C20.0945 14.1546 20.5752 12.9915 20.5752 11.7789C20.5752 10.5663 20.0945 9.40321 19.2383 8.54452L14.8875 4.21286C14.4376 3.76177 13.8981 3.41013 13.3038 3.18067C12.7096 2.95121 12.0737 2.84904 11.4375 2.88077L6.64581 3.11077C4.72914 3.19702 3.20539 4.72077 3.10956 6.62786L2.87956 11.4195C2.82206 12.7133 3.31081 13.9687 4.22122 14.8791Z" stroke="#2A2C3A" stroke-width="1.5" stroke-linecap="round" stroke-linejoin="round"/>
<path d="M9.32943 11.7166C9.96484 11.7166 10.5742 11.4642 11.0235 11.0149C11.4728 10.5656 11.7253 9.95617 11.7253 9.32076C11.7253 8.68535 11.4728 8.07596 11.0235 7.62665C10.5742 7.17734 9.96484 6.92493 9.32943 6.92493C8.69401 6.92493 8.08462 7.17734 7.63532 7.62665C7.18601 8.07596 6.93359 8.68535 6.93359 9.32076C6.93359 9.95617 7.18601 10.5656 7.63532 11.0149C8.08462 11.4642 8.69401 11.7166 9.32943 11.7166Z" stroke="#2A2C3A" stroke-width="1.5" stroke-linecap="round"/>
<path d="M12.6836 16.5083L16.5169 12.6749" stroke="#2A2C3A" stroke-width="1.5" stroke-miterlimit="10" stroke-linecap="round" stroke-linejoin="round"/>
</svg>
