<svg width="23" height="23" viewBox="0 0 23 23" fill="none" xmlns="http://www.w3.org/2000/svg">
<path d="M16.2915 9.58335H18.2082C20.1248 9.58335 21.0832 8.62502 21.0832 6.70835V4.79169C21.0832 2.87502 20.1248 1.91669 18.2082 1.91669H16.2915C14.3748 1.91669 13.4165 2.87502 13.4165 4.79169V6.70835C13.4165 8.62502 14.3748 9.58335 16.2915 9.58335ZM4.7915 21.0834H6.70817C8.62484 21.0834 9.58317 20.125 9.58317 18.2084V16.2917C9.58317 14.375 8.62484 13.4167 6.70817 13.4167H4.7915C2.87484 13.4167 1.9165 14.375 1.9165 16.2917V18.2084C1.9165 20.125 2.87484 21.0834 4.7915 21.0834ZM5.74984 9.58335C6.7665 9.58335 7.74152 9.17949 8.46041 8.4606C9.1793 7.74171 9.58317 6.76668 9.58317 5.75002C9.58317 4.73336 9.1793 3.75833 8.46041 3.03944C7.74152 2.32055 6.7665 1.91669 5.74984 1.91669C4.73317 1.91669 3.75815 2.32055 3.03926 3.03944C2.32037 3.75833 1.9165 4.73336 1.9165 5.75002C1.9165 6.76668 2.32037 7.74171 3.03926 8.4606C3.75815 9.17949 4.73317 9.58335 5.74984 9.58335ZM17.2498 21.0834C18.2665 21.0834 19.2415 20.6795 19.9604 19.9606C20.6793 19.2417 21.0832 18.2667 21.0832 17.25C21.0832 16.2334 20.6793 15.2583 19.9604 14.5394C19.2415 13.8206 18.2665 13.4167 17.2498 13.4167C16.2332 13.4167 15.2582 13.8206 14.5393 14.5394C13.8204 15.2583 13.4165 16.2334 13.4165 17.25C13.4165 18.2667 13.8204 19.2417 14.5393 19.9606C15.2582 20.6795 16.2332 21.0834 17.2498 21.0834Z" stroke="#2A2C3A" stroke-width="1.5" stroke-miterlimit="10" stroke-linecap="round" stroke-linejoin="round"/>
</svg>
