<svg width="24" height="24" viewBox="0 0 24 24" fill="none" xmlns="http://www.w3.org/2000/svg">
<path d="M11.7193 2.83728C8.49208 2.83728 5.86933 5.46003 5.86933 8.68729V11.505C5.86933 12.0998 5.61583 13.0065 5.31358 13.5135L4.19233 15.3758C3.50008 16.5263 3.97783 17.8036 5.24533 18.2326C9.44758 19.6366 13.9813 19.6366 18.1836 18.2326C19.3633 17.8426 19.8801 16.4483 19.2366 15.3758L18.1153 13.5135C17.8228 13.0065 17.5693 12.0998 17.5693 11.505V8.68729C17.5693 5.46978 14.9368 2.83728 11.7193 2.83728Z" stroke="#333333" stroke-width="2.25" stroke-miterlimit="10" stroke-linecap="round"/>
<path d="M13.523 3.11998C12.344 2.78418 11.0946 2.78418 9.91553 3.11998C10.1983 2.39848 10.9003 1.89148 11.7193 1.89148C12.5383 1.89148 13.2403 2.39848 13.523 3.11998Z" stroke="#333333" stroke-width="2.07" stroke-miterlimit="10" stroke-linecap="round" stroke-linejoin="round"/>
<path d="M14.6444 18.5835C14.6444 20.1922 13.3282 21.5085 11.7194 21.5085C10.9199 21.5085 10.1789 21.177 9.65243 20.6505C9.10464 20.1019 8.79618 19.3588 8.79443 18.5835" stroke="#333333" stroke-width="2.07" stroke-miterlimit="10"/>
</svg>
