<svg width="21" height="21" viewBox="0 0 21 21" fill="none" xmlns="http://www.w3.org/2000/svg">
<path d="M18.9999 19.415L17.2169 17.632M9.63917 18.5235C10.7514 18.5235 11.8527 18.3045 12.8802 17.8788C13.9078 17.4532 14.8414 16.8294 15.6278 16.0429C16.4143 15.2565 17.0381 14.3229 17.4637 13.2953C17.8894 12.2678 18.1084 11.1665 18.1084 10.0543C18.1084 8.94207 17.8894 7.84077 17.4637 6.81323C17.0381 5.78569 16.4143 4.85205 15.6278 4.06561C14.8414 3.27917 13.9078 2.65532 12.8802 2.22971C11.8527 1.80409 10.7514 1.58502 9.63917 1.58502C7.39299 1.58502 5.2388 2.47732 3.65051 4.06561C2.06222 5.6539 1.16992 7.80809 1.16992 10.0543C1.16992 12.3005 2.06222 14.4546 3.65051 16.0429C5.2388 17.6312 7.39299 18.5235 9.63917 18.5235Z" stroke="#333333" stroke-width="2.25" stroke-linecap="round" stroke-linejoin="round"/>
</svg>
